# xmcd
#
# Track frame offsets:
#	150
#	20394
#	29963
#	43571
#	70816
#	114072
#	126731
#	145852
#	180268
#	213034
#	264839
#	308618
#
# Disc length: 4485 seconds
# Revision: 0
# Processed by: cddbd v1.5.2PL0 Copyright (c) Steve Scherf et al.
# Submitted via: dBpowerAMP V12.0
#
DISCID=9e11830c
DTITLE=Various / Overtures
DYEAR=
DGENRE=
TTITLE0=Bernstein;New York Phil / Prelude a la nuit
TTITLE1=Bernstein;New York Phil / Malaguena
TTITLE2=Bernstein;New York Phil / Habanera
TTITLE3=Bernstein;New York Phil / Feria
TTITLE4=Tourel;Bernstein;New York Phil / Asie
TTITLE5=Tourel;Bernstein;New York Phil / La Flute enchantee
TTITLE6=Tourel;Bernstein;New York Phil / L'Indifferent
TTITLE7=Bernstein;New York Phil / Barber of Seville overture
TTITLE8=Bernstein;New York Phil / Italian in Algiers overture
TTITLE9=Bernstein;New York Phil / William Tell overture
TTITLE10=Bernstein;New York Phil / La gazza ladra overture
TTITLE11=Bernstein;New York Phil / Scala di seta overture
EXTD=
EXTT0=
EXTT1=
EXTT2=
EXTT3=
EXTT4=
EXTT5=
EXTT6=
EXTT7=
EXTT8=
EXTT9=
EXTT10=
EXTT11=
PLAYORDER=
